# xmcd CD database file
#
# Track frame offsets:
#	150
#	11219
#	25699
#	39646
#	56350
#	70368
#	86108
#	98572
#	127223
#	134922
#	143611
#	159361
#	170820
#	187622
#	197357
#	209527
#	224836
#	235415
#	246845
#	260214
#	270795
#
# Disc length: 3749 seconds
#
# Revision: 0
# Processed by: cddbd v1.4PL0 Copyright (c) Steve Scherf et al.
# Submitted via: CDex 1.40Beta8
#
DISCID=3c0ea315
DTITLE=Michal Tucny - Odjizdim V Dal
DYEAR=2001
DGENRE=Country
TTITLE0=Rovnou Tady Rovnou
TTITLE1=Vlak Pulnocni
TTITLE2=Blizko Little Big Hornu
TTITLE3=Svatebni Zvony
TTITLE4=Necekej Uz Dal
TTITLE5=Cervena Reka
TTITLE6=Michaluv Song
TTITLE7=Feleena Z El Pasa
TTITLE8=Slapej dal
TTITLE9=Za Chvili Uz Budu V Dali
TTITLE10=El Paso
TTITLE11=Blues Folsomske Veznice
TTITLE12=Dnesni Noc Bude Dlouha
TTITLE13=Rychlik
TTITLE14=Cizinec
TTITLE15=Jeste Je Cas
TTITLE16=Oci Pali A Silnice Je Jak Klin Cernej
TTITLE17=Sest Bilych Koni
TTITLE18=Jen Tohle Chci Ti Rict
TTITLE19=Kocarem Mym Je Vagon Uhli
TTITLE20=Odjizdim V Dal
EXTD=YEAR: 2001 ID3G: 40
EXTT0=
EXTT1=
EXTT2=
EXTT3=
EXTT4=
EXTT5=
EXTT6=
EXTT7=
EXTT8=
EXTT9=
EXTT10=
EXTT11=
EXTT12=
EXTT13=
EXTT14=
EXTT15=
EXTT16=
EXTT17=
EXTT18=
EXTT19=
EXTT20=
PLAYORDER=
